# xmcd
#
# Track frame offsets: 
#        150
#        10160
#        22028
#        33201
#        48949
#        62895
#        73721
#        85782
#        99763
#        132501
#        146901
#        167488
#        189428
#        205564
#
# Disc length: 2901 seconds
#
# Revision: 2
# Processed by: cddbd v1.5.2PL0 Copyright (c) Steve Scherf et al.
# Submitted via: ExactAudioCopy v0.99pb5
#
DISCID=b60b530e
DTITLE=Captain Beefheart - Electricity CD1
DYEAR=2008
DGENRE=Blues Rock
TTITLE0=Sure
TTITLE1=Zig Zag
TTITLE2=Dropout Boogie
TTITLE3=I'm glad
TTITLE4=Electricity
TTITLE5=Yello Brick Road
TTITLE6=Abba Zaba
TTITLE7=Plastic factory
TTITLE8=Trust Us
TTITLE9=Beatle Bones 'n' Smokin' Stones
TTITLE10=Moody Liz
TTITLE11=Big Black Baby Shoes
TTITLE12=Gimme Dat Harp Boy
TTITLE13=Dirty Blue Gene
EXTD=
EXTT0=
EXTT1=
EXTT2=
EXTT3=
EXTT4=
EXTT5=
EXTT6=
EXTT7=
EXTT8=
EXTT9=
EXTT10=
EXTT11=
EXTT12=
EXTT13=
PLAYORDER=
